<svg width="14" height="14" viewBox="0 0 14 14" fill="none" xmlns="http://www.w3.org/2000/svg"> <path d="M13.2271 0H0.772917C0.346354 0 0 0.346354 0 0.772917V13.2271C0 13.6536 0.346354 14 0.772917 14H7V8.45833H5.32656V6.41667H7V4.90729C7 3.09896 8.25417 2.11458 9.86927 2.11458C10.6422 2.11458 11.4734 2.17292 11.6667 2.19844V4.08698H10.3797C9.50104 4.08698 9.33333 4.5026 9.33333 5.1151V6.41667H11.426L11.1526 8.45833H9.33333V14H13.2271C13.6536 14 14 13.6536 14 13.2271V0.772917C14 0.346354 13.6536 0 13.2271 0Z" fill="white"></path> </svg>