<svg width="18" height="14" viewBox="0 0 18 14" fill="none" xmlns="http://www.w3.org/2000/svg"> <path d="M18 1.65885C17.3363 1.93958 16.6268 2.12917 15.8792 2.21667C16.6421 1.77917 17.2295 1.08646 17.5041 0.2625C16.7908 0.667187 16.0013 0.9625 15.1583 1.11927C14.4832 0.430208 13.5219 0 12.4615 0C10.4209 0 8.76923 1.58229 8.76923 3.53281C8.76923 3.8099 8.79975 4.07969 8.86459 4.33854C5.79402 4.19271 3.07057 2.78542 1.25111 0.645312C0.93452 1.16667 0.75143 1.77552 0.75143 2.42083C0.75143 3.64583 1.4075 4.72865 2.39924 5.36302C1.78894 5.34844 1.21678 5.18802 0.720915 4.92188V4.96562C0.720915 6.67917 1.99491 8.10469 3.68468 8.42917C3.37572 8.50938 3.04768 8.55313 2.71202 8.55313C2.47552 8.55313 2.24285 8.53125 2.0178 8.4875C2.48697 9.89115 3.85251 10.912 5.4698 10.9411C4.20725 11.8891 2.61284 12.4542 0.881119 12.4542C0.583598 12.4542 0.289892 12.4359 0 12.4031C1.62873 13.4167 3.57025 14 5.65289 14C12.4539 14 16.1691 8.6151 16.1691 3.94479C16.1691 3.79167 16.1653 3.63854 16.1577 3.48906C16.8786 2.98958 17.5041 2.36979 18 1.65885Z" fill="white"></path> </svg>